<?xml version="1.0" encoding="UTF-8"?>
<svg version="1.1" xmlns="http://www.w3.org/2000/svg" width="45" height="45">
<path d="M0 0 C14.85 0 29.7 0 45 0 C45 14.85 45 29.7 45 45 C30.15 45 15.3 45 0 45 C0 30.15 0 15.3 0 0 Z " fill="#005D91" transform="translate(0,0)"/>
<path d="M0 0 C3.33524284 2.69995849 4.56351308 6.03255995 6 10 C6.1875 12.9375 6.1875 12.9375 6 15 C7.485 15.495 7.485 15.495 9 16 C10.84172925 18.80812063 11.24272984 21.00891125 11.1953125 24.328125 C11.19031738 25.0490332 11.18532227 25.76994141 11.18017578 26.51269531 C11.16196777 27.41600586 11.14375977 28.31931641 11.125 29.25 C11.08375 32.1375 11.0425 35.025 11 38 C-0.55 38 -12.1 38 -24 38 C-24.33 35.36 -24.66 32.72 -25 30 C-23.5164999 30.42257276 -22.03823576 30.86356322 -20.5625 31.3125 C-19.73878906 31.55613281 -18.91507813 31.79976562 -18.06640625 32.05078125 C-17.38449219 32.36402344 -16.70257813 32.67726562 -16 33 C-15.67 33.99 -15.34 34.98 -15 36 C-14.34 36.33 -13.68 36.66 -13 37 C-14.02703822 34.47753497 -14.02703822 34.47753497 -16 32 C-19.57996259 30.63099646 -19.57996259 30.63099646 -23 30 C-21.84826645 27.53199953 -20.95216435 25.95216435 -19 24 C-18.39688385 22.31238142 -17.86149763 20.59985524 -17.375 18.875 C-17.11460938 17.96492188 -16.85421875 17.05484375 -16.5859375 16.1171875 C-16.39257812 15.41851562 -16.19921875 14.71984375 -16 14 C-8.375 14.875 -8.375 14.875 -5 16 C-2.88433214 15.02648474 -2.88433214 15.02648474 -0.8125 13.5625 C-0.09707031 13.08941406 0.61835937 12.61632813 1.35546875 12.12890625 C1.89816406 11.75636719 2.44085938 11.38382813 3 11 C2.34 10.01 1.68 9.02 1 8 C0.46083854 5.3397977 0.26629902 2.70737337 0 0 Z " fill="#03010A" transform="translate(34,7)"/>
<path d="M0 0 C6.93 0 13.86 0 21 0 C21 0.33 21 0.66 21 1 C23.97 1.33 26.94 1.66 30 2 C30 2.33 30 2.66 30 3 C28.02 3.33 26.04 3.66 24 4 C24.495 4.53625 24.99 5.0725 25.5 5.625 C27.37489544 8.59358445 27.23501425 10.55312427 27 14 C25.96939453 14.34998047 25.96939453 14.34998047 24.91796875 14.70703125 C19.19531307 16.9749428 19.19531307 16.9749428 15.66796875 21.78125 C14.95156201 24.51982947 14.38298746 27.19633541 14 30 C12.68 30 11.36 30 10 30 C9.34 29.01 8.68 28.02 8 27 C5.83647603 27.81880887 5.83647603 27.81880887 5.125 29.9375 C4 32 4 32 0 34 C0 22.78 0 11.56 0 0 Z " fill="#00437B" transform="translate(0,0)"/>
<path d="M0 0 C3.33524284 2.69995849 4.56351308 6.03255995 6 10 C6.1875 12.9375 6.1875 12.9375 6 15 C7.485 15.495 7.485 15.495 9 16 C10.84172925 18.80812063 11.24272984 21.00891125 11.1953125 24.328125 C11.19031738 25.0490332 11.18532227 25.76994141 11.18017578 26.51269531 C11.16196777 27.41600586 11.14375977 28.31931641 11.125 29.25 C11.08375 32.1375 11.0425 35.025 11 38 C-0.55 38 -12.1 38 -24 38 C-24.33 35.36 -24.66 32.72 -25 30 C-23.5164999 30.42257276 -22.03823576 30.86356322 -20.5625 31.3125 C-19.73878906 31.55613281 -18.91507813 31.79976562 -18.06640625 32.05078125 C-17.38449219 32.36402344 -16.70257813 32.67726562 -16 33 C-15.67 33.99 -15.34 34.98 -15 36 C-14.34 36.33 -13.68 36.66 -13 37 C-12.67 36.01 -12.34 35.02 -12 34 C-11.01 34.33 -10.02 34.66 -9 35 C-5.54406421 35.58685702 -3.19054864 35.77500383 -0.17578125 33.8125 C3.07778191 30.41483964 4.15368593 27.39887106 4.21875 22.75390625 C4.34493403 14.71216344 4.34493403 14.71216344 1 8 C0.43479997 5.34462628 0.26211802 2.70855287 0 0 Z " fill="#023368" transform="translate(34,7)"/>
<path d="M0 0 C0.66 0.33 1.32 0.66 2 1 C1.773125 1.53625 1.54625 2.0725 1.3125 2.625 C0.74203086 5.20483864 0.74203086 5.20483864 2.5625 8 C3.036875 8.99 3.51125 9.98 4 11 C3.19140625 12.828125 3.19140625 12.828125 2 15 C1.41987103 16.90537772 0.87962512 18.82324953 0.375 20.75 C0.11460938 21.73484375 -0.14578125 22.7196875 -0.4140625 23.734375 C-0.70410156 24.85585938 -0.70410156 24.85585938 -1 26 C-2.32 26 -3.64 26 -5 26 C-5.66 25.01 -6.32 24.02 -7 23 C-9.16352397 23.81880887 -9.16352397 23.81880887 -9.875 25.9375 C-11 28 -11 28 -15 30 C-15 24.06 -15 18.12 -15 12 C-12.525 12.495 -12.525 12.495 -10 13 C-8.68 13 -7.36 13 -6 13 C-5.81824219 12.31292969 -5.63648438 11.62585937 -5.44921875 10.91796875 C-5.19785156 10.01691406 -4.94648438 9.11585937 -4.6875 8.1875 C-4.44386719 7.29417969 -4.20023438 6.40085937 -3.94921875 5.48046875 C-2.9799181 2.94752262 -2.04990396 1.7283504 0 0 Z " fill="#1C133E" transform="translate(15,4)"/>
<path d="M0 0 C3.33524284 2.69995849 4.56351308 6.03255995 6 10 C6.1875 12.9375 6.1875 12.9375 6 15 C6.99 15.33 7.98 15.66 9 16 C10.84172925 18.80812063 11.24272984 21.00891125 11.1953125 24.328125 C11.18564453 25.52695312 11.18564453 25.52695312 11.17578125 26.75 C11.15902344 27.575 11.14226563 28.4 11.125 29.25 C11.11597656 30.09046875 11.10695313 30.9309375 11.09765625 31.796875 C11.07415817 33.86470604 11.03828908 35.93238995 11 38 C9.02 38 7.04 38 5 38 C5.495 37.566875 5.99 37.13375 6.5 36.6875 C8.33218192 35.00259517 8.33218192 35.00259517 8 32 C7.01 32.495 7.01 32.495 6 33 C6.33 31.35 6.66 29.7 7 28 C5.35 28.99 3.7 29.98 2 31 C2.33515625 30.51789062 2.6703125 30.03578125 3.015625 29.5390625 C4.47364986 25.7782841 4.03670908 22.34892118 3.75 18.375 C3.71003906 17.59898438 3.67007813 16.82296875 3.62890625 16.0234375 C3.48256483 11.540818 3.48256483 11.540818 1 8 C0.43479997 5.34462628 0.26211802 2.70855287 0 0 Z " fill="#072151" transform="translate(34,7)"/>
<path d="M0 0 C5.28 0 10.56 0 16 0 C14.515 2.475 14.515 2.475 13 5 C12.25432347 6.42900552 11.5235215 7.86593901 10.8125 9.3125 C10.46832031 10.00988281 10.12414063 10.70726562 9.76953125 11.42578125 C9.51558594 11.94527344 9.26164063 12.46476563 9 13 C5.22618181 12.47585858 2.50846488 11.97299541 0 9 C-0.34447361 5.92160882 -0.18055936 3.114649 0 0 Z " fill="#101F49" transform="translate(0,0)"/>
<path d="M0 0 C1.84446577 2.76669866 2.44899138 4.23102338 3.125 7.375 C3.29257813 8.12523437 3.46015625 8.87546875 3.6328125 9.6484375 C4 12 4 12 4 17 C0.7 17 -2.6 17 -6 17 C-6.78734859 7.00942127 -6.78734859 7.00942127 -3.5625 2.875 C-2.716875 2.25625 -1.87125 1.6375 -1 1 C-0.67 0.67 -0.34 0.34 0 0 Z " fill="#757170" transform="translate(6,28)"/>
<path d="M0 0 C2.6964776 1.06224875 4.06335573 1.63537808 6.0625 3.8125 C6.57701937 7.04901798 6.43676042 10.23338467 6.3125 13.5 C6.29445313 14.39267578 6.27640625 15.28535156 6.2578125 16.20507812 C6.21067759 18.40863504 6.14490657 20.61002601 6.0625 22.8125 C2.61431281 19.66195763 0.52062454 17.44578556 -0.5625 12.875 C-1.60587927 8.88631009 -2.93185066 5.44177024 -4.9375 1.8125 C-1.9375 -0.1875 -1.9375 -0.1875 0 0 Z " fill="#159CD4" transform="translate(38.9375,4.1875)"/>
<path d="M0 0 C2.475 0.495 2.475 0.495 5 1 C6.32 1 7.64 1 9 1 C9 1.66 9 2.32 9 3 C9.66 3 10.32 3 11 3 C10.875 5.3125 10.875 5.3125 10 8 C8.03384339 9.0650015 6.03273074 10.06833174 4 11 C3.67 11.99 3.34 12.98 3 14 C2.01 14.33 1.02 14.66 0 15 C0 10.05 0 5.1 0 0 Z " fill="#101F49" transform="translate(0,16)"/>
<path d="M0 0 C0.721875 0.12375 1.44375 0.2475 2.1875 0.375 C2.1875 0.705 2.1875 1.035 2.1875 1.375 C5.1575 1.705 8.1275 2.035 11.1875 2.375 C11.1875 2.705 11.1875 3.035 11.1875 3.375 C9.86685547 3.39626953 9.86685547 3.39626953 8.51953125 3.41796875 C1.41951692 3.62915897 1.41951692 3.62915897 -5 6.3125 C-7.4750629 10.49450283 -8.19071184 14.59558352 -8.8125 19.375 C-9.73675781 18.86453125 -9.73675781 18.86453125 -10.6796875 18.34375 C-13.267366 17.1683942 -14.15809156 17.66715775 -16.8125 18.375 C-18.8125 16.375 -18.8125 16.375 -18.9375 12.75 C-18.89625 11.63625 -18.855 10.5225 -18.8125 9.375 C-17.9771875 9.808125 -17.9771875 9.808125 -17.125 10.25 C-14.72755355 11.4163253 -12.29653061 12.4089881 -9.8125 13.375 C-9.585625 12.34375 -9.35875 11.3125 -9.125 10.25 C-7.72970762 5.42543267 -5.38385492 0.71784732 0 0 Z " fill="#01A3E6" transform="translate(18.8125,-0.375)"/>
<path d="M0 0 C7.92 0 15.84 0 24 0 C24 2.64 24 5.28 24 8 C23.4225 7.690625 22.845 7.38125 22.25 7.0625 C18.61116865 5.34416297 16.07079012 5 12 5 C11.01 4.34 10.02 3.68 9 3 C6.49103314 2.54398739 6.49103314 2.54398739 3.8125 2.375 C2.91144531 2.30023438 2.01039062 2.22546875 1.08203125 2.1484375 C0.39496094 2.09945313 -0.29210937 2.05046875 -1 2 C-0.67 1.34 -0.34 0.68 0 0 Z " fill="#101F49" transform="translate(21,0)"/>
<path d="M0 0 C5.75 1.875 5.75 1.875 8 3 C8 5.97 8 8.94 8 12 C8.66 12 9.32 12 10 12 C10 12.66 10 13.32 10 14 C9.34 14 8.68 14 8 14 C7.67 14.99 7.34 15.98 7 17 C3.76397815 13.18611711 1.16791436 9.49641497 -1 5 C-0.75 2.0625 -0.75 2.0625 0 0 Z " fill="#8B8684" transform="translate(19,23)"/>
<path d="M0 0 C0.66 0.33 1.32 0.66 2 1 C1.773125 1.53625 1.54625 2.0725 1.3125 2.625 C0.74203086 5.20483864 0.74203086 5.20483864 2.5625 8 C3.036875 8.99 3.51125 9.98 4 11 C3.19140625 12.828125 3.19140625 12.828125 2 15 C1.41987103 16.90537772 0.87962512 18.82324953 0.375 20.75 C-0.01558594 22.22726563 -0.01558594 22.22726563 -0.4140625 23.734375 C-0.70410156 24.85585938 -0.70410156 24.85585938 -1 26 C-2.32 26 -3.64 26 -5 26 C-5.33 24.35 -5.66 22.7 -6 21 C-4.02 21.99 -4.02 21.99 -2 23 C-1.77788884 21.06403108 -1.57277008 19.12610672 -1.375 17.1875 C-1.25898438 16.10855469 -1.14296875 15.02960937 -1.0234375 13.91796875 C-0.72539844 10.80375668 -0.72539844 10.80375668 -3 8 C-3.3125 5.5 -3.3125 5.5 -3 3 C-1.5 1.1875 -1.5 1.1875 0 0 Z " fill="#042555" transform="translate(15,4)"/>
<path d="M0 0 C0.33 0 0.66 0 1 0 C1.76681614 8.62242152 1.76681614 8.62242152 -0.11328125 12 C-1.5 13.625 -1.5 13.625 -4 16 C-2.906875 16.103125 -1.81375 16.20625 -0.6875 16.3125 C3 17 3 17 4.9375 18.375 C6 20 6 20 6 23 C5.01 22.67 4.02 22.34 3 22 C3 21.34 3 20.68 3 20 C2.37351562 19.81566406 1.74703125 19.63132812 1.1015625 19.44140625 C-1.53668182 18.5051208 -3.69856566 17.60466981 -6 16 C-7.05133299 13.58488967 -7.41420697 11.53840539 -7.68359375 8.92578125 C-7.78800781 8.29027344 -7.89242188 7.65476562 -8 7 C-8.66 6.67 -9.32 6.34 -10 6 C-8.68 6 -7.36 6 -6 6 C-5.01 7.485 -5.01 7.485 -4 9 C-3.34 9 -2.68 9 -2 9 C-1.34 6.03 -0.68 3.06 0 0 Z " fill="#005388" transform="translate(15,21)"/>
<path d="M0 0 C-1.17556485 3.52669456 -2.66560247 4.63705875 -5.87890625 6.4140625 C-9.87373181 7.51760547 -13.37671906 5.67607554 -17 4 C-12.5906458 -0.88178501 -6.4095088 -3.2047544 0 0 Z " fill="#423D3C" transform="translate(36,17)"/>
<path d="M0 0 C3.375 -0.125 3.375 -0.125 7 0 C9.49505962 2.49505962 9.35948376 3.67328888 9.625 7.125 C9.69976562 8.03507813 9.77453125 8.94515625 9.8515625 9.8828125 C9.90054688 10.58148438 9.94953125 11.28015625 10 12 C7.75 12.0625 7.75 12.0625 5 11 C3.30017113 8.13713032 2.16463449 5.11140098 1 2 C0.67 1.34 0.34 0.68 0 0 Z " fill="#004881" transform="translate(25,3)"/>
<path d="M0 0 C3 1 3 1 4 3 C4.08308638 4.37548156 4.10736016 5.75485796 4.09765625 7.1328125 C4.09282227 8.34130859 4.09282227 8.34130859 4.08789062 9.57421875 C4.07951172 10.41597656 4.07113281 11.25773437 4.0625 12.125 C4.05798828 12.97449219 4.05347656 13.82398438 4.04882812 14.69921875 C4.03702874 16.79950909 4.01909306 18.8997633 4 21 C2.02 21 0.04 21 -2 21 C-1.505 20.566875 -1.01 20.13375 -0.5 19.6875 C1.33218192 18.00259517 1.33218192 18.00259517 1 15 C0.01 15.495 0.01 15.495 -1 16 C-0.74863281 15.07767578 -0.74863281 15.07767578 -0.4921875 14.13671875 C-0.28851563 13.32847656 -0.08484375 12.52023438 0.125 11.6875 C0.33382812 10.88699219 0.54265625 10.08648437 0.7578125 9.26171875 C1.27427334 6.71792767 1.27427334 6.71792767 -1 4 C-0.625 1.8125 -0.625 1.8125 0 0 Z " fill="#18083D" transform="translate(41,24)"/>
<path d="M0 0 C-1.37940148 3.33355357 -2.72687457 5.36343728 -6 7 C-10.5246535 6.15162747 -13.01278187 4.44679015 -16 1 C-12.53058454 1.45822468 -9.32604951 1.89131683 -6 3 C-1.69565217 0 -1.69565217 0 0 0 Z " fill="#000000" transform="translate(35,20)"/>
<path d="M0 0 C3.875 1.75 3.875 1.75 5 4 C5.04022391 6.3329866 5.04320247 8.66706666 5 11 C2.58896173 10.03558469 1.22595242 9.31202953 -0.3125 7.1875 C-1.17031512 4.45808824 -0.75644808 2.72321308 0 0 Z " fill="#101F49" transform="translate(40,9)"/>
<path d="M0 0 C0.66 0.66 1.32 1.32 2 2 C1.81566406 2.74636719 1.63132812 3.49273438 1.44140625 4.26171875 C0.83996124 7.99280681 2.04188896 9.60156702 3.9375 12.8125 C4.78634766 14.27623047 4.78634766 14.27623047 5.65234375 15.76953125 C6.09707031 16.50558594 6.54179687 17.24164063 7 18 C2.21041437 15.98980988 0.03003881 12.68738575 -2 8 C-1.8803233 4.76872922 -1.42784499 2.85568997 0 0 Z " fill="#44332D" transform="translate(18,21)"/>
<path d="M0 0 C0.33 0 0.66 0 1 0 C1.08133791 1.91595968 1.13934367 3.83291932 1.1875 5.75 C1.22230469 6.81734375 1.25710937 7.8846875 1.29296875 8.984375 C0.97082786 12.30027855 0.22851086 13.59016673 -2 16 C-2.05384521 13.70858714 -2.09272087 11.41681812 -2.125 9.125 C-2.14820312 7.84882813 -2.17140625 6.57265625 -2.1953125 5.2578125 C-2 2 -2 2 0 0 Z " fill="#7E7A7A" transform="translate(32,24)"/>
<path d="M0 0 C3.31658613 4.9748792 4.38479461 11.03568353 4 17 C3.34 17 2.68 17 2 17 C1.4678559 14.91952703 0.94968214 12.83547707 0.4375 10.75 C0.14746094 9.58984375 -0.14257812 8.4296875 -0.44140625 7.234375 C-0.95179964 4.27909017 -1.02996165 2.75565899 0 0 Z " fill="#9E9D9D" transform="translate(6,28)"/>
<path d="M0 0 C2.97 0.99 5.94 1.98 9 3 C9 3.66 9 4.32 9 5 C7.35 5 5.7 5 4 5 C4.66 5.66 5.32 6.32 6 7 C4.35 7.33 2.7 7.66 1 8 C0.67 5.36 0.34 2.72 0 0 Z " fill="#0E1548" transform="translate(9,37)"/>
<path d="M0 0 C0.66 0.33 1.32 0.66 2 1 C2 4.96 2 8.92 2 13 C1.01 13 0.02 13 -1 13 C-1 12.34 -1 11.68 -1 11 C-0.34 11 0.32 11 1 11 C1 10.34 1 9.68 1 9 C0.34 9 -0.32 9 -1 9 C-1.09765625 2.84765625 -1.09765625 2.84765625 -1 1 C-0.67 0.67 -0.34 0.34 0 0 Z " fill="#532A14" transform="translate(28,26)"/>
<path d="M0 0 C2.76683076 2.38953566 3.88205053 4.53050164 5 8 C5.1953125 11.33203125 5.1953125 11.33203125 5.125 14.8125 C5.10695313 15.97394531 5.08890625 17.13539062 5.0703125 18.33203125 C5.04710937 19.21246094 5.02390625 20.09289062 5 21 C4.67 21 4.34 21 4 21 C3.92652344 19.84371094 3.92652344 19.84371094 3.8515625 18.6640625 C3.77679688 17.66117188 3.70203125 16.65828125 3.625 15.625 C3.55539063 14.62726562 3.48578125 13.62953125 3.4140625 12.6015625 C3.23636036 9.84491121 3.23636036 9.84491121 1 8 C0.43479997 5.34462628 0.26211802 2.70855287 0 0 Z " fill="#042656" transform="translate(34,7)"/>
<path d="M0 0 C0.33 0 0.66 0 1 0 C1.08167446 1.41569064 1.13949698 2.83276805 1.1875 4.25 C1.22230469 5.03890625 1.25710937 5.8278125 1.29296875 6.640625 C0.93578688 9.51712968 -0.11751718 10.84576769 -2 13 C-2.05391993 11.20866022 -2.09275571 9.41686101 -2.125 7.625 C-2.14820313 6.62726562 -2.17140625 5.62953125 -2.1953125 4.6015625 C-2 2 -2 2 0 0 Z " fill="#3E3938" transform="translate(35,21)"/>
<path d="M0 0 C0.763125 0.061875 1.52625 0.12375 2.3125 0.1875 C2.3125 2.1675 2.3125 4.1475 2.3125 6.1875 C-0.3275 5.1975 -2.9675 4.2075 -5.6875 3.1875 C-2.6875 0.1875 -2.6875 0.1875 0 0 Z " fill="#8A8787" transform="translate(26.6875,17.8125)"/>
<path d="M0 0 C0.33 1.32 0.66 2.64 1 4 C-0.79036458 4.94401042 -2.58072917 5.88802083 -4.37109375 6.83203125 C-6.32267987 7.99019799 -6.32267987 7.99019799 -7 11 C-7.99 11.33 -8.98 11.66 -10 12 C-10 9.75 -10 9.75 -9 7 C-6.9985356 5.76633875 -4.99160173 4.8716107 -2.8125 3.9921875 C-0.64659324 3.07363556 -0.64659324 3.07363556 0 0 Z " fill="#01A3E6" transform="translate(10,19)"/>
<path d="M0 0 C0.99 0.33 1.98 0.66 3 1 C3.33 3.31 3.66 5.62 4 8 C3.67 7.34 3.34 6.68 3 6 C0.98330173 4.86649466 0.98330173 4.86649466 -1 4 C-0.67 2.68 -0.34 1.36 0 0 Z " fill="#0A0909" transform="translate(41,24)"/>
<path d="M0 0 C0.33 0 0.66 0 1 0 C1 3.3 1 6.6 1 10 C-0.98 10.99 -0.98 10.99 -3 12 C-3.33 11.34 -3.66 10.68 -4 10 C-3.525625 9.649375 -3.05125 9.29875 -2.5625 8.9375 C-0.32126175 6.15836457 -0.32882342 3.4855283 0 0 Z " fill="#00467D" transform="translate(15,21)"/>
<path d="M0 0 C0.33 0.66 0.66 1.32 1 2 C0.0625 4.125 0.0625 4.125 -1 6 C-0.34 6.33 0.32 6.66 1 7 C-0.32 7 -1.64 7 -3 7 C-2.25 2.25 -2.25 2.25 0 0 Z " fill="#003F76" transform="translate(41,34)"/>
<path d="M0 0 C0.33 0 0.66 0 1 0 C1 1.65 1 3.3 1 5 C1.99 5.33 2.98 5.66 4 6 C3 8 3 8 0 11 C0 7.37 0 3.74 0 0 Z " fill="#2A1E3E" transform="translate(39,17)"/>
</svg>
